<?xml version="1.0" encoding="utf-8"?>
<!-- Generator: Adobe Illustrator 15.1.0, SVG Export Plug-In . SVG Version: 6.00 Build 0)  -->
<!DOCTYPE svg PUBLIC "-//W3C//DTD SVG 1.1//EN" "http://www.w3.org/Graphics/SVG/1.1/DTD/svg11.dtd">
<svg version="1.1" xmlns="http://www.w3.org/2000/svg" xmlns:xlink="http://www.w3.org/1999/xlink" x="0px" y="0px" width="24px"
	 height="24px" viewBox="0 0 24 24" enable-background="new 0 0 24 24" xml:space="preserve">
<g id="Camada_3" display="none">
	<path display="inline" fill="#EFEEED" d="M12.333,0v24H2.75c0,0-3.125-0.415-2.75-2.957V2.141C0,2.141,1.203,0,3.109,0"/>
	<path display="inline" fill="#EFEEED" d="M11.635,0.043v24h9.608c0,0,3.133-0.415,2.757-2.957V2.184c0,0-1.206-2.141-3.117-2.141"
		/>
</g>
<g id="Camada_4">
	<ellipse fill="#B0F4F0" cx="12.286" cy="12" rx="10.923" ry="8.806"/>
</g>
<g id="Camada_2">
	<g>
		<path fill="#5CB030" d="M9.717,16.581c0,2.941-2.39,5.324-5.327,5.324c-2.94,0-5.322-2.383-5.322-5.324
			c0-2.942,2.382-5.324,5.322-5.324C7.327,11.257,9.717,13.639,9.717,16.581z"/>
		<path fill="#FFFFFF" d="M4.322,15.014c0,1.074-0.871,1.951-1.941,1.951c-1.078,0-1.95-0.877-1.95-1.951
			c0-1.071,0.872-1.943,1.95-1.943C3.451,13.07,4.322,13.942,4.322,15.014z"/>
		<path fill="#1D1D1B" d="M3.064,15.014c0,0.382-0.309,0.689-0.683,0.689c-0.382,0-0.69-0.308-0.69-0.689
			c0-0.379,0.308-0.688,0.69-0.688C2.755,14.325,3.064,14.635,3.064,15.014z"/>
		<path fill="#FFFFFF" d="M7.763,15.014c0,0.923-0.747,1.663-1.663,1.663c-0.915,0-1.664-0.74-1.664-1.663
			c0-0.919,0.75-1.659,1.664-1.659C7.016,13.354,7.763,14.095,7.763,15.014z"/>
		<path fill="#1D1D1B" d="M6.792,15.014c0,0.382-0.314,0.689-0.692,0.689c-0.382,0-0.687-0.308-0.687-0.689
			c0-0.379,0.305-0.688,0.687-0.688C6.478,14.325,6.792,14.635,6.792,15.014z"/>
		<path fill="#514595" d="M1.28,14.325"/>
		<path fill="#1D1D1B" d="M1.195,12.949c0,0,1.026-0.707,2.364,0C3.559,12.949,2.482,11.008,1.195,12.949z"/>
		<path fill="#1D1D1B" d="M4.921,13.07c0,0,1.021-0.708,2.36,0C7.281,13.07,6.202,11.129,4.921,13.07z"/>
		<path fill="#FFFFFF" stroke="#1D1D1B" stroke-width="0.1" stroke-miterlimit="10" d="M0.71,17.328"/>
		<path fill="#FFFFFF" stroke="#1D1D1B" stroke-width="0.1" stroke-miterlimit="10" d="M0.654,17.754c0,0,2.875,0.831,7.561,0
			C8.215,17.754,4.04,21.321,0.654,17.754z"/>
	</g>
	<g>
		<path fill="#2A39F2" d="M25.271,18.31c0,4.679-3.8,8.469-8.473,8.469c-4.675,0-8.464-3.79-8.464-8.469
			c0-4.677,3.79-8.466,8.464-8.466C21.472,9.844,25.271,13.633,25.271,18.31z"/>
		<path fill="#FFFFFF" d="M16.692,15.818c0,1.708-1.386,3.104-3.087,3.104c-1.715,0-3.101-1.396-3.101-3.104
			c0-1.705,1.386-3.089,3.101-3.089C15.307,12.729,16.692,14.113,16.692,15.818z"/>
		<path fill="#1D1D1B" d="M14.69,15.818c0,0.604-0.49,1.096-1.085,1.096c-0.608,0-1.099-0.491-1.099-1.096
			c0-0.602,0.491-1.093,1.099-1.093C14.2,14.726,14.69,15.217,14.69,15.818z"/>
		<path fill="#FFFFFF" d="M22.163,15.818c0,1.466-1.188,2.646-2.645,2.646c-1.454,0-2.646-1.181-2.646-2.646
			c0-1.462,1.192-2.641,2.646-2.641C20.976,13.178,22.163,14.356,22.163,15.818z"/>
		<path fill="#1D1D1B" d="M20.619,15.818c0,0.604-0.499,1.096-1.101,1.096c-0.606,0-1.092-0.491-1.092-1.096
			c0-0.602,0.485-1.093,1.092-1.093C20.12,14.726,20.619,15.217,20.619,15.818z"/>
		<path fill="#514595" d="M11.853,14.726"/>
		<path fill="#1D1D1B" d="M11.719,12.535c0,0,1.63-1.125,3.759,0C15.479,12.535,13.765,9.447,11.719,12.535z"/>
		<path fill="#1D1D1B" d="M17.644,12.729c0,0,1.624-1.129,3.753,0C21.396,12.729,19.682,9.641,17.644,12.729z"/>
		<path fill="#FFFFFF" stroke="#1D1D1B" stroke-width="0.1" stroke-miterlimit="10" d="M10.948,19.497"/>
		<path fill="#FFFFFF" stroke="#1D1D1B" stroke-width="0.1" stroke-miterlimit="10" d="M10.857,20.177c0,0,4.573,1.321,12.025,0
			C22.883,20.177,16.243,25.852,10.857,20.177z"/>
	</g>
</g>
<g id="Camada_1">
	<path fill="#FFBB24" stroke="#F4A019" stroke-width="0.1" stroke-miterlimit="10" d="M0,6.637c0,2.103,2.867,3.808,6.401,3.808
		c3.535,0,6.4-1.705,6.4-3.808c0-2.1-2.865-3.805-6.4-3.805C2.867,2.833,0,4.537,0,6.637z"/>
	<polyline fill="#FFBB24" stroke="#F4A019" stroke-width="0.1" stroke-miterlimit="10" points="3.844,9.678 1.221,10.869 0.91,8.26 
			"/>
	<g>
		<path fill="#458BEF" stroke="#0A3075" stroke-width="0.1" stroke-miterlimit="10" d="M25.271,4.251
			c0,3.044-4.69,5.512-10.473,5.512c-5.785,0-10.474-2.468-10.474-5.512c0-3.041,4.688-5.509,10.474-5.509
			C20.581-1.257,25.271,1.211,25.271,4.251z"/>
		<polyline fill="#458BEF" stroke="#0A3075" stroke-width="0.1" stroke-miterlimit="10" points="17.043,9.36 21.335,11.083 
			21.844,7.307 		"/>
	</g>
	
		<text transform="matrix(0.8962 0 0 1 9.3115 7.3066)" fill="#FFFFFF" stroke="#1D1D1B" stroke-width="0.3" stroke-miterlimit="10" font-family="'Vani'" font-size="8.9228">LV</text>
</g>
</svg>
